<svg width="26" height="26" viewBox="0 0 26 26" fill="none" xmlns="http://www.w3.org/2000/svg">
<g clip-path="url(#clip0_446_185)">
<path d="M13.0204 0.0102539C15.585 0.0136945 18.0911 0.778137 20.2224 2.20711C22.3537 3.63608 24.0146 5.66553 24.9956 8.03929C25.9765 10.4131 26.2335 13.0247 25.7342 15.5447C25.2348 18.0646 24.0014 20.3799 22.1897 22.1983C20.9884 23.4082 19.5594 24.3673 17.9854 25.0199C16.4114 25.6725 14.7238 26.0056 13.0204 26C9.58064 25.9934 6.28272 24.6261 3.84427 22.1958C1.40581 19.7655 0.0241698 16.4687 0 13.023C0.0161287 9.57149 1.39406 6.26641 3.83324 3.82866C6.27242 1.39091 9.57491 0.0182994 13.0204 0.0102539Z" fill="#3A3A3A"/>
<path d="M21.0332 4.97553C19.4455 3.3885 17.4239 2.30858 15.2237 1.87218C13.0235 1.43579 10.7435 1.66251 8.67195 2.52374C6.60036 3.38497 4.8301 4.84203 3.58487 6.71079C2.33964 8.57956 1.67532 10.7762 1.67587 13.023C1.66981 14.5174 1.95907 15.9981 2.52698 17.38C3.09488 18.7618 3.93019 20.0174 4.98476 21.0743C6.03933 22.1312 7.2923 22.9685 8.67143 23.5381C10.0506 24.1076 11.5286 24.398 13.0203 24.3926C14.5116 24.3979 15.9891 24.1075 17.3678 23.5382C18.7465 22.969 19.9992 22.132 21.0536 21.0757C23.1683 18.93 24.3573 16.0382 24.3647 13.023C24.37 11.5292 24.0802 10.049 23.5119 8.66785C22.9436 7.28669 22.1081 6.03181 21.0536 4.97553H21.0332Z" fill="#FEFEFE"/>
<path d="M6.4235 9.66005C7.11283 9.6641 7.78547 9.87293 8.35631 10.2601C8.92716 10.6472 9.37054 11.1952 9.63037 11.8349C9.8902 12.4745 9.95479 13.1769 9.81598 13.8534C9.67717 14.5298 9.34118 15.1497 8.85054 15.6348C8.35991 16.1199 7.73666 16.4483 7.05967 16.5784C6.38267 16.7086 5.68236 16.6346 5.04733 16.3659C4.4123 16.0972 3.87111 15.6459 3.49222 15.069C3.11332 14.4921 2.91377 13.8156 2.91879 13.125C2.92079 12.6667 3.01314 12.2133 3.19054 11.7908C3.36794 11.3683 3.62689 10.9851 3.95254 10.6631C4.27819 10.3412 4.66411 10.0868 5.08814 9.9147C5.51218 9.74257 5.96598 9.65601 6.4235 9.66005Z" fill="#6CACE4"/>
<path d="M11.6806 2.9751C11.9828 2.9751 12.2783 3.0649 12.5296 3.23312C12.7809 3.40133 12.9768 3.64041 13.0924 3.92014C13.2081 4.19988 13.2384 4.50771 13.1794 4.80467C13.1204 5.10164 12.9749 5.37444 12.7612 5.58854C12.5474 5.80264 12.2751 5.94845 11.9787 6.00752C11.6823 6.06659 11.375 6.03628 11.0957 5.9204C10.8165 5.80453 10.5778 5.60828 10.4099 5.35653C10.242 5.10477 10.1523 4.8088 10.1523 4.50601C10.1523 4.09999 10.3134 3.71058 10.5999 3.42348C10.8865 3.13638 11.2752 2.9751 11.6806 2.9751Z" fill="#6CACE4"/>
<path d="M12.949 17.1716C13.5535 17.1716 14.1444 17.3512 14.6471 17.6876C15.1497 18.0241 15.5414 18.5023 15.7728 19.0618C16.0041 19.6212 16.0646 20.2368 15.9467 20.8308C15.8288 21.4247 15.5377 21.9703 15.1102 22.3985C14.6828 22.8267 14.1382 23.1183 13.5453 23.2364C12.9524 23.3546 12.3378 23.294 11.7794 23.0622C11.2209 22.8305 10.7435 22.438 10.4077 21.9345C10.0718 21.431 9.89258 20.839 9.89258 20.2335C9.89258 19.4214 10.2146 18.6426 10.7878 18.0684C11.361 17.4942 12.1384 17.1716 12.949 17.1716Z" fill="#6CACE4"/>
<path d="M14.411 11.4666C14.549 11.4597 14.687 11.481 14.8165 11.5292C14.9461 11.5773 15.0645 11.6514 15.1645 11.7469C15.2646 11.8423 15.3442 11.9572 15.3986 12.0845C15.453 12.2118 15.4809 12.3488 15.4807 12.4872C15.4794 12.7715 15.3664 13.0438 15.1662 13.2453C14.9661 13.4468 14.6947 13.5613 14.411 13.564C14.2723 13.5642 14.1351 13.536 14.0077 13.4813C13.8803 13.4265 13.7654 13.3462 13.67 13.2454C13.5746 13.1446 13.5008 13.0254 13.453 12.895C13.4053 12.7647 13.3845 12.6259 13.3922 12.4872C13.3922 12.2165 13.4995 11.9569 13.6906 11.7655C13.8816 11.5741 14.1408 11.4666 14.411 11.4666Z" fill="#6CACE4"/>
<path d="M18.257 7.75666C18.404 7.7464 18.5507 7.78077 18.678 7.85527C18.8053 7.92976 18.9072 8.04091 18.9704 8.17427C19.0337 8.30763 19.0554 8.45701 19.0327 8.60291C19.01 8.7488 18.944 8.88443 18.8432 8.99218C18.7424 9.09992 18.6116 9.17477 18.4677 9.20693C18.3239 9.23909 18.1737 9.22708 18.0367 9.17248C17.8998 9.11789 17.7824 9.02324 17.6999 8.90085C17.6175 8.77847 17.5737 8.63404 17.5744 8.48639C17.5702 8.29947 17.6394 8.11837 17.767 7.98194C17.8946 7.84551 18.0705 7.76462 18.257 7.75666Z" fill="#6CACE4"/>
<path d="M20.8857 11.6604C21.3967 11.6594 21.8965 11.8103 22.3219 12.0939C22.7473 12.3776 23.0792 12.7813 23.2754 13.254C23.4717 13.7267 23.5235 14.247 23.4245 14.7492C23.3254 15.2514 23.0798 15.713 22.7188 16.0753C22.3578 16.4376 21.8977 16.6845 21.3965 16.7848C20.8954 16.885 20.3758 16.8341 19.9036 16.6384C19.4314 16.4428 19.0277 16.1111 18.7437 15.6856C18.4597 15.26 18.3081 14.7596 18.3081 14.2477C18.3121 13.5636 18.5848 12.9086 19.0672 12.4244C19.5496 11.9402 20.2028 11.6658 20.8857 11.6604Z" fill="#6CACE4"/>
<path d="M12.1696 7.95557C12.3812 7.95557 12.588 8.0184 12.7639 8.13615C12.9398 8.25391 13.077 8.4213 13.1579 8.61712C13.2389 8.81293 13.2601 9.0284 13.2188 9.23628C13.1775 9.44416 13.0756 9.63508 12.926 9.78496C12.7764 9.93483 12.5858 10.0369 12.3783 10.0783C12.1708 10.1196 11.9557 10.0984 11.7602 10.0173C11.5648 9.93617 11.3977 9.79879 11.2801 9.62256C11.1626 9.44633 11.0999 9.23914 11.0999 9.02719C11.1012 8.74339 11.2143 8.47161 11.4147 8.27092C11.615 8.07024 11.8863 7.95691 12.1696 7.95557Z" fill="#6CACE4"/>
</g>
<defs>
<clipPath id="clip0_446_185">
<rect width="26" height="26" fill="white"/>
</clipPath>
</defs>
</svg>
